<svg width="323" height="381" viewBox="0 0 323 381" fill="none" xmlns="http://www.w3.org/2000/svg">
<path d="M159.65 6L5 95.5343V287.182L163.35 375.236L318 287.182V95.5343L159.65 6Z" stroke="black" stroke-width="10"/>
<path d="M160.39 39.2979V344.158L289.882 272.383V111.073L160.39 39.2979Z" fill="#0C1F29"/>
<path d="M160.39 344.158V39.2979L31.6383 111.073V272.383L160.39 344.158Z" fill="#4185A7"/>
<path d="M160.39 71.1158L61.2364 131.052L160.39 107.374V71.1158Z" fill="#9B9B9B"/>
<path d="M260.284 131.052L160.39 71.1158V107.374L260.284 131.052Z" fill="#9B9B9B"/>
<path d="M260.284 131.052L160.39 107.374L230.686 236.865L260.284 131.052Z" fill="#D9D9D9"/>
<path d="M160.39 107.374L61.2364 131.052L90.8345 236.865L160.39 107.374Z" fill="#D9D9D9"/>
<path d="M160.39 107.374L90.8345 236.865H230.686L160.39 107.374Z" fill="white"/>
<path d="M61.2364 131.052V250.924L90.8345 236.865L61.2364 131.052Z" fill="#9B9B9B"/>
<path d="M61.2364 250.924L160.39 312.34L90.8345 236.865L61.2364 250.924Z" fill="#626262"/>
<path d="M230.686 236.865H90.8345L160.39 312.34L230.686 236.865Z" fill="#9B9B9B"/>
<path d="M160.39 312.34L260.284 250.924L230.686 236.865L160.39 312.34Z" fill="#626262"/>
<path d="M260.284 250.924V131.052L230.686 236.865L260.284 250.924Z" fill="#9B9B9B"/>
<path d="M61.2364 131.052L160.39 71.1158M61.2364 131.052V250.924M61.2364 131.052L160.39 107.374M61.2364 131.052L90.8345 236.865M160.39 71.1158L260.284 131.052M160.39 71.1158V107.374M260.284 131.052V250.924M260.284 131.052L160.39 107.374M260.284 131.052L230.686 236.865M260.284 250.924L160.39 312.34M260.284 250.924L230.686 236.865M160.39 312.34L61.2364 250.924M160.39 312.34L230.686 236.865M160.39 312.34L90.8345 236.865M61.2364 250.924L90.8345 236.865M160.39 107.374L90.8345 236.865M160.39 107.374L230.686 236.865M90.8345 236.865H230.686" stroke="black" stroke-width="5"/>
</svg>
